<svg width="160" height="59" viewBox="0 0 160 59" fill="none" xmlns="http://www.w3.org/2000/svg">
<path fill-rule="evenodd" clip-rule="evenodd" d="M22.1164 23.0304H41.8836V39.4397C41.8836 40.4146 41.1078 41.2049 40.152 41.2049H38.1721V46.2024C38.1721 47.4715 37.1784 48.5 35.9518 48.5C34.7221 48.5 33.7299 47.4715 33.7299 46.2024V41.2049H30.2719V46.2024C30.2719 47.4715 29.2762 48.5 28.0497 48.5C26.8234 48.5 25.8278 47.4715 25.8278 46.2024V41.2049H23.8496C22.8936 41.2049 22.1164 40.4146 22.1164 39.4397V23.0304H22.1164ZM18.2427 22.8964C17.0037 22.8964 16 23.9348 16 25.2166V34.2843C16 35.5646 17.0037 36.6047 18.2427 36.6047C19.482 36.6047 20.4855 35.5646 20.4855 34.2843V25.2166C20.4855 23.9348 19.482 22.8964 18.2427 22.8964ZM41.8837 21.3768H22.1164C22.3604 18.508 24.1872 16.0392 26.817 14.6098L24.9375 11.7986C24.6841 11.4195 24.7797 10.9022 25.1526 10.6441C25.525 10.386 26.0318 10.4841 26.2865 10.8629L28.3349 13.9291C29.4706 13.529 30.7034 13.2993 32 13.2993C33.2982 13.2993 34.5311 13.529 35.6667 13.9296L37.7151 10.864C37.9667 10.4842 38.475 10.386 38.8475 10.6441C39.2204 10.9023 39.316 11.4195 39.0625 11.7986L37.1846 14.6099C39.8143 16.0384 41.6399 18.5072 41.8837 21.3768ZM28.9242 17.4787C28.9242 16.8635 28.4352 16.3645 27.8315 16.3645C27.2263 16.3645 26.7373 16.8635 26.7373 17.4787C26.7373 18.0936 27.2279 18.5924 27.8315 18.5924C28.4351 18.5924 28.9242 18.0936 28.9242 17.4787ZM37.4014 17.4787C37.4014 16.8635 36.9107 16.3645 36.3071 16.3645C35.7019 16.3645 35.2143 16.8635 35.2143 17.4787C35.2143 18.0936 35.7019 18.5924 36.3071 18.5924C36.9107 18.5924 37.4014 18.0936 37.4014 17.4787ZM45.7589 22.8932C44.5211 22.8932 43.5146 23.9331 43.5146 25.215V34.2859C43.5146 35.5678 44.5211 36.608 45.7589 36.608C46.9982 36.608 48 35.5679 48 34.2859V25.215C48.0001 23.9331 46.9982 22.8932 45.7589 22.8932Z" fill="white"/>
<path d="M63.625 19.5H61.8438L61.8555 18.5801H63.625C64.2344 18.5801 64.7422 18.4531 65.1484 18.1992C65.5547 17.9414 65.8594 17.582 66.0625 17.1211C66.2695 16.6562 66.373 16.1133 66.373 15.4922V14.9707C66.373 14.4824 66.3145 14.0488 66.1973 13.6699C66.0801 13.2871 65.9082 12.9648 65.6816 12.7031C65.4551 12.4375 65.1777 12.2363 64.8496 12.0996C64.5254 11.9629 64.1523 11.8945 63.7305 11.8945H61.8086V10.9688H63.7305C64.2891 10.9688 64.7988 11.0625 65.2598 11.25C65.7207 11.4336 66.1172 11.7012 66.4492 12.0527C66.7852 12.4004 67.043 12.8223 67.2227 13.3184C67.4023 13.8105 67.4922 14.3652 67.4922 14.9824V15.4922C67.4922 16.1094 67.4023 16.666 67.2227 17.1621C67.043 17.6543 66.7832 18.0742 66.4434 18.4219C66.1074 18.7695 65.7012 19.0371 65.2246 19.2246C64.752 19.4082 64.2188 19.5 63.625 19.5ZM62.4473 10.9688V19.5H61.3164V10.9688H62.4473ZM68.7402 16.4004V16.2656C68.7402 15.8086 68.8066 15.3848 68.9395 14.9941C69.0723 14.5996 69.2637 14.2578 69.5137 13.9688C69.7637 13.6758 70.0664 13.4492 70.4219 13.2891C70.7773 13.125 71.1758 13.043 71.6172 13.043C72.0625 13.043 72.4629 13.125 72.8184 13.2891C73.1777 13.4492 73.4824 13.6758 73.7324 13.9688C73.9863 14.2578 74.1797 14.5996 74.3125 14.9941C74.4453 15.3848 74.5117 15.8086 74.5117 16.2656V16.4004C74.5117 16.8574 74.4453 17.2812 74.3125 17.6719C74.1797 18.0625 73.9863 18.4043 73.7324 18.6973C73.4824 18.9863 73.1797 19.2129 72.8242 19.377C72.4727 19.5371 72.0742 19.6172 71.6289 19.6172C71.1836 19.6172 70.7832 19.5371 70.4277 19.377C70.0723 19.2129 69.7676 18.9863 69.5137 18.6973C69.2637 18.4043 69.0723 18.0625 68.9395 17.6719C68.8066 17.2812 68.7402 16.8574 68.7402 16.4004ZM69.8242 16.2656V16.4004C69.8242 16.7168 69.8613 17.0156 69.9355 17.2969C70.0098 17.5742 70.1211 17.8203 70.2695 18.0352C70.4219 18.25 70.6113 18.4199 70.8379 18.5449C71.0645 18.666 71.3281 18.7266 71.6289 18.7266C71.9258 18.7266 72.1855 18.666 72.4082 18.5449C72.6348 18.4199 72.8223 18.25 72.9707 18.0352C73.1191 17.8203 73.2305 17.5742 73.3047 17.2969C73.3828 17.0156 73.4219 16.7168 73.4219 16.4004V16.2656C73.4219 15.9531 73.3828 15.6582 73.3047 15.3809C73.2305 15.0996 73.1172 14.8516 72.9648 14.6367C72.8164 14.418 72.6289 14.2461 72.4023 14.1211C72.1797 13.9961 71.918 13.9336 71.6172 13.9336C71.3203 13.9336 71.0586 13.9961 70.832 14.1211C70.6094 14.2461 70.4219 14.418 70.2695 14.6367C70.1211 14.8516 70.0098 15.0996 69.9355 15.3809C69.8613 15.6582 69.8242 15.9531 69.8242 16.2656ZM77.4766 18.375L79.1055 13.1602H79.8203L79.6797 14.1973L78.0215 19.5H77.3242L77.4766 18.375ZM76.3809 13.1602L77.7695 18.4336L77.8691 19.5H77.1367L75.2969 13.1602H76.3809ZM81.3789 18.3926L82.7031 13.1602H83.7812L81.9414 19.5H81.2148L81.3789 18.3926ZM79.9785 13.1602L81.5723 18.2871L81.7539 19.5H81.0625L79.3574 14.1855L79.2168 13.1602H79.9785ZM85.9785 14.5137V19.5H84.8945V13.1602H85.9199L85.9785 14.5137ZM85.7207 16.0898L85.2695 16.0723C85.2734 15.6387 85.3379 15.2383 85.4629 14.8711C85.5879 14.5 85.7637 14.1777 85.9902 13.9043C86.2168 13.6309 86.4863 13.4199 86.7988 13.2715C87.1152 13.1191 87.4648 13.043 87.8477 13.043C88.1602 13.043 88.4414 13.0859 88.6914 13.1719C88.9414 13.2539 89.1543 13.3867 89.3301 13.5703C89.5098 13.7539 89.6465 13.9922 89.7402 14.2852C89.834 14.5742 89.8809 14.9277 89.8809 15.3457V19.5H88.791V15.334C88.791 15.002 88.7422 14.7363 88.6445 14.5371C88.5469 14.334 88.4043 14.1875 88.2168 14.0977C88.0293 14.0039 87.7988 13.957 87.5254 13.957C87.2559 13.957 87.0098 14.0137 86.7871 14.127C86.5684 14.2402 86.3789 14.3965 86.2188 14.5957C86.0625 14.7949 85.9395 15.0234 85.8496 15.2812C85.7637 15.5352 85.7207 15.8047 85.7207 16.0898ZM92.7051 10.5V19.5H91.6152V10.5H92.7051ZM94.1582 16.4004V16.2656C94.1582 15.8086 94.2246 15.3848 94.3574 14.9941C94.4902 14.5996 94.6816 14.2578 94.9316 13.9688C95.1816 13.6758 95.4844 13.4492 95.8398 13.2891C96.1953 13.125 96.5938 13.043 97.0352 13.043C97.4805 13.043 97.8809 13.125 98.2363 13.2891C98.5957 13.4492 98.9004 13.6758 99.1504 13.9688C99.4043 14.2578 99.5977 14.5996 99.7305 14.9941C99.8633 15.3848 99.9297 15.8086 99.9297 16.2656V16.4004C99.9297 16.8574 99.8633 17.2812 99.7305 17.6719C99.5977 18.0625 99.4043 18.4043 99.1504 18.6973C98.9004 18.9863 98.5977 19.2129 98.2422 19.377C97.8906 19.5371 97.4922 19.6172 97.0469 19.6172C96.6016 19.6172 96.2012 19.5371 95.8457 19.377C95.4902 19.2129 95.1855 18.9863 94.9316 18.6973C94.6816 18.4043 94.4902 18.0625 94.3574 17.6719C94.2246 17.2812 94.1582 16.8574 94.1582 16.4004ZM95.2422 16.2656V16.4004C95.2422 16.7168 95.2793 17.0156 95.3535 17.2969C95.4277 17.5742 95.5391 17.8203 95.6875 18.0352C95.8398 18.25 96.0293 18.4199 96.2559 18.5449C96.4824 18.666 96.7461 18.7266 97.0469 18.7266C97.3438 18.7266 97.6035 18.666 97.8262 18.5449C98.0527 18.4199 98.2402 18.25 98.3887 18.0352C98.5371 17.8203 98.6484 17.5742 98.7227 17.2969C98.8008 17.0156 98.8398 16.7168 98.8398 16.4004V16.2656C98.8398 15.9531 98.8008 15.6582 98.7227 15.3809C98.6484 15.0996 98.5352 14.8516 98.3828 14.6367C98.2344 14.418 98.0469 14.2461 97.8203 14.1211C97.5977 13.9961 97.3359 13.9336 97.0352 13.9336C96.7383 13.9336 96.4766 13.9961 96.25 14.1211C96.0273 14.2461 95.8398 14.418 95.6875 14.6367C95.5391 14.8516 95.4277 15.0996 95.3535 15.3809C95.2793 15.6582 95.2422 15.9531 95.2422 16.2656ZM105.027 18.416V15.1523C105.027 14.9023 104.977 14.6855 104.875 14.502C104.777 14.3145 104.629 14.1699 104.43 14.0684C104.23 13.9668 103.984 13.916 103.691 13.916C103.418 13.916 103.178 13.9629 102.971 14.0566C102.768 14.1504 102.607 14.2734 102.49 14.4258C102.377 14.5781 102.32 14.7422 102.32 14.918H101.236C101.236 14.6914 101.295 14.4668 101.412 14.2441C101.529 14.0215 101.697 13.8203 101.916 13.6406C102.139 13.457 102.404 13.3125 102.713 13.207C103.025 13.0977 103.373 13.043 103.756 13.043C104.217 13.043 104.623 13.1211 104.975 13.2773C105.33 13.4336 105.607 13.6699 105.807 13.9863C106.01 14.2988 106.111 14.6914 106.111 15.1641V18.1172C106.111 18.3281 106.129 18.5527 106.164 18.791C106.203 19.0293 106.26 19.2344 106.334 19.4062V19.5H105.203C105.148 19.375 105.105 19.209 105.074 19.002C105.043 18.791 105.027 18.5957 105.027 18.416ZM105.215 15.6562L105.227 16.418H104.131C103.822 16.418 103.547 16.4434 103.305 16.4941C103.062 16.541 102.859 16.6133 102.695 16.7109C102.531 16.8086 102.406 16.9316 102.32 17.0801C102.234 17.2246 102.191 17.3945 102.191 17.5898C102.191 17.7891 102.236 17.9707 102.326 18.1348C102.416 18.2988 102.551 18.4297 102.73 18.5273C102.914 18.6211 103.139 18.668 103.404 18.668C103.736 18.668 104.029 18.5977 104.283 18.457C104.537 18.3164 104.738 18.1445 104.887 17.9414C105.039 17.7383 105.121 17.541 105.133 17.3496L105.596 17.8711C105.568 18.0352 105.494 18.2168 105.373 18.416C105.252 18.6152 105.09 18.8066 104.887 18.9902C104.688 19.1699 104.449 19.3203 104.172 19.4414C103.898 19.5586 103.59 19.6172 103.246 19.6172C102.816 19.6172 102.439 19.5332 102.115 19.3652C101.795 19.1973 101.545 18.9727 101.365 18.6914C101.189 18.4062 101.102 18.0879 101.102 17.7363C101.102 17.3965 101.168 17.0977 101.301 16.8398C101.434 16.5781 101.625 16.3613 101.875 16.1895C102.125 16.0137 102.426 15.8809 102.777 15.791C103.129 15.7012 103.521 15.6562 103.955 15.6562H105.215ZM111.812 18.2695V10.5H112.902V19.5H111.906L111.812 18.2695ZM107.547 16.4004V16.2773C107.547 15.793 107.605 15.3535 107.723 14.959C107.844 14.5605 108.014 14.2188 108.232 13.9336C108.455 13.6484 108.719 13.4297 109.023 13.2773C109.332 13.1211 109.676 13.043 110.055 13.043C110.453 13.043 110.801 13.1133 111.098 13.2539C111.398 13.3906 111.652 13.5918 111.859 13.8574C112.07 14.1191 112.236 14.4355 112.357 14.8066C112.479 15.1777 112.562 15.5977 112.609 16.0664V16.6055C112.566 17.0703 112.482 17.4883 112.357 17.8594C112.236 18.2305 112.07 18.5469 111.859 18.8086C111.652 19.0703 111.398 19.2715 111.098 19.4121C110.797 19.5488 110.445 19.6172 110.043 19.6172C109.672 19.6172 109.332 19.5371 109.023 19.377C108.719 19.2168 108.455 18.9922 108.232 18.7031C108.014 18.4141 107.844 18.0742 107.723 17.6836C107.605 17.2891 107.547 16.8613 107.547 16.4004ZM108.637 16.2773V16.4004C108.637 16.7168 108.668 17.0137 108.73 17.291C108.797 17.5684 108.898 17.8125 109.035 18.0234C109.172 18.2344 109.346 18.4004 109.557 18.5215C109.768 18.6387 110.02 18.6973 110.312 18.6973C110.672 18.6973 110.967 18.6211 111.197 18.4688C111.432 18.3164 111.619 18.1152 111.76 17.8652C111.9 17.6152 112.01 17.3438 112.088 17.0508V15.6387C112.041 15.4238 111.973 15.2168 111.883 15.0176C111.797 14.8145 111.684 14.6348 111.543 14.4785C111.406 14.3184 111.236 14.1914 111.033 14.0977C110.834 14.0039 110.598 13.957 110.324 13.957C110.027 13.957 109.771 14.0195 109.557 14.1445C109.346 14.2656 109.172 14.4336 109.035 14.6484C108.898 14.8594 108.797 15.1055 108.73 15.3867C108.668 15.6641 108.637 15.9609 108.637 16.2773ZM120.889 11.7246L118.064 19.5H116.91L120.162 10.9688H120.906L120.889 11.7246ZM123.256 19.5L120.426 11.7246L120.408 10.9688H121.152L124.416 19.5H123.256ZM123.109 16.3418V17.2676H118.316V16.3418H123.109ZM128.705 16.1543H126.426V15.2344H128.705C129.146 15.2344 129.504 15.1641 129.777 15.0234C130.051 14.8828 130.25 14.6875 130.375 14.4375C130.504 14.1875 130.568 13.9023 130.568 13.582C130.568 13.2891 130.504 13.0137 130.375 12.7559C130.25 12.498 130.051 12.291 129.777 12.1348C129.504 11.9746 129.146 11.8945 128.705 11.8945H126.689V19.5H125.559V10.9688H128.705C129.35 10.9688 129.895 11.0801 130.34 11.3027C130.785 11.5254 131.123 11.834 131.354 12.2285C131.584 12.6191 131.699 13.0664 131.699 13.5703C131.699 14.1172 131.584 14.584 131.354 14.9707C131.123 15.3574 130.785 15.6523 130.34 15.8555C129.895 16.0547 129.35 16.1543 128.705 16.1543ZM134.26 10.9688V19.5H133.129V10.9688H134.26ZM139.41 10.9688L135.865 14.9473L133.873 17.0156L133.686 15.8086L135.186 14.1562L138.051 10.9688H139.41ZM138.32 19.5L135.162 15.3398L135.836 14.4434L139.668 19.5H138.32Z" fill="white"/>
<path d="M68.5781 27.9492L62.9297 43.5H60.6211L67.125 26.4375H68.6133L68.5781 27.9492ZM73.3125 43.5L67.6523 27.9492L67.6172 26.4375H69.1055L75.6328 43.5H73.3125ZM73.0195 37.1836V39.0352H63.4336V37.1836H73.0195ZM79.7578 33.5273V43.5H77.5898V30.8203H79.6406L79.7578 33.5273ZM79.2422 36.6797L78.3398 36.6445C78.3477 35.7773 78.4766 34.9766 78.7266 34.2422C78.9766 33.5 79.3281 32.8555 79.7812 32.3086C80.2344 31.7617 80.7734 31.3398 81.3984 31.043C82.0312 30.7383 82.7305 30.5859 83.4961 30.5859C84.1211 30.5859 84.6836 30.6719 85.1836 30.8438C85.6836 31.0078 86.1094 31.2734 86.4609 31.6406C86.8203 32.0078 87.0938 32.4844 87.2812 33.0703C87.4688 33.6484 87.5625 34.3555 87.5625 35.1914V43.5H85.3828V35.168C85.3828 34.5039 85.2852 33.9727 85.0898 33.5742C84.8945 33.168 84.6094 32.875 84.2344 32.6953C83.8594 32.5078 83.3984 32.4141 82.8516 32.4141C82.3125 32.4141 81.8203 32.5273 81.375 32.7539C80.9375 32.9805 80.5586 33.293 80.2383 33.6914C79.9258 34.0898 79.6797 34.5469 79.5 35.0625C79.3281 35.5703 79.2422 36.1094 79.2422 36.6797ZM98.8477 41.0391V25.5H101.027V43.5H99.0352L98.8477 41.0391ZM90.3164 37.3008V37.0547C90.3164 36.0859 90.4336 35.207 90.668 34.418C90.9102 33.6211 91.25 32.9375 91.6875 32.3672C92.1328 31.7969 92.6602 31.3594 93.2695 31.0547C93.8867 30.7422 94.5742 30.5859 95.332 30.5859C96.1289 30.5859 96.8242 30.7266 97.418 31.0078C98.0195 31.2812 98.5273 31.6836 98.9414 32.2148C99.3633 32.7383 99.6953 33.3711 99.9375 34.1133C100.18 34.8555 100.348 35.6953 100.441 36.6328V37.7109C100.355 38.6406 100.188 39.4766 99.9375 40.2188C99.6953 40.9609 99.3633 41.5938 98.9414 42.1172C98.5273 42.6406 98.0195 43.043 97.418 43.3242C96.8164 43.5977 96.1133 43.7344 95.3086 43.7344C94.5664 43.7344 93.8867 43.5742 93.2695 43.2539C92.6602 42.9336 92.1328 42.4844 91.6875 41.9062C91.25 41.3281 90.9102 40.6484 90.668 39.8672C90.4336 39.0781 90.3164 38.2227 90.3164 37.3008ZM92.4961 37.0547V37.3008C92.4961 37.9336 92.5586 38.5273 92.6836 39.082C92.8164 39.6367 93.0195 40.125 93.293 40.5469C93.5664 40.9688 93.9141 41.3008 94.3359 41.543C94.7578 41.7773 95.2617 41.8945 95.8477 41.8945C96.5664 41.8945 97.1562 41.7422 97.6172 41.4375C98.0859 41.1328 98.4609 40.7305 98.7422 40.2305C99.0234 39.7305 99.2422 39.1875 99.3984 38.6016V35.7773C99.3047 35.3477 99.168 34.9336 98.9883 34.5352C98.8164 34.1289 98.5898 33.7695 98.3086 33.457C98.0352 33.1367 97.6953 32.8828 97.2891 32.6953C96.8906 32.5078 96.418 32.4141 95.8711 32.4141C95.2773 32.4141 94.7656 32.5391 94.3359 32.7891C93.9141 33.0312 93.5664 33.3672 93.293 33.7969C93.0195 34.2188 92.8164 34.7109 92.6836 35.2734C92.5586 35.8281 92.4961 36.4219 92.4961 37.0547ZM106.57 32.8125V43.5H104.402V30.8203H106.512L106.57 32.8125ZM110.531 30.75L110.52 32.7656C110.34 32.7266 110.168 32.7031 110.004 32.6953C109.848 32.6797 109.668 32.6719 109.465 32.6719C108.965 32.6719 108.523 32.75 108.141 32.9062C107.758 33.0625 107.434 33.2812 107.168 33.5625C106.902 33.8438 106.691 34.1797 106.535 34.5703C106.387 34.9531 106.289 35.375 106.242 35.8359L105.633 36.1875C105.633 35.4219 105.707 34.7031 105.855 34.0312C106.012 33.3594 106.25 32.7656 106.57 32.25C106.891 31.7266 107.297 31.3203 107.789 31.0312C108.289 30.7344 108.883 30.5859 109.57 30.5859C109.727 30.5859 109.906 30.6055 110.109 30.6445C110.312 30.6758 110.453 30.7109 110.531 30.75ZM111.727 37.3008V37.0312C111.727 36.1172 111.859 35.2695 112.125 34.4883C112.391 33.6992 112.773 33.0156 113.273 32.4375C113.773 31.8516 114.379 31.3984 115.09 31.0781C115.801 30.75 116.598 30.5859 117.48 30.5859C118.371 30.5859 119.172 30.75 119.883 31.0781C120.602 31.3984 121.211 31.8516 121.711 32.4375C122.219 33.0156 122.605 33.6992 122.871 34.4883C123.137 35.2695 123.27 36.1172 123.27 37.0312V37.3008C123.27 38.2148 123.137 39.0625 122.871 39.8438C122.605 40.625 122.219 41.3086 121.711 41.8945C121.211 42.4727 120.605 42.9258 119.895 43.2539C119.191 43.5742 118.395 43.7344 117.504 43.7344C116.613 43.7344 115.812 43.5742 115.102 43.2539C114.391 42.9258 113.781 42.4727 113.273 41.8945C112.773 41.3086 112.391 40.625 112.125 39.8438C111.859 39.0625 111.727 38.2148 111.727 37.3008ZM113.895 37.0312V37.3008C113.895 37.9336 113.969 38.5312 114.117 39.0938C114.266 39.6484 114.488 40.1406 114.785 40.5703C115.09 41 115.469 41.3398 115.922 41.5898C116.375 41.832 116.902 41.9531 117.504 41.9531C118.098 41.9531 118.617 41.832 119.062 41.5898C119.516 41.3398 119.891 41 120.188 40.5703C120.484 40.1406 120.707 39.6484 120.855 39.0938C121.012 38.5312 121.09 37.9336 121.09 37.3008V37.0312C121.09 36.4062 121.012 35.8164 120.855 35.2617C120.707 34.6992 120.48 34.2031 120.176 33.7734C119.879 33.3359 119.504 32.9922 119.051 32.7422C118.605 32.4922 118.082 32.3672 117.48 32.3672C116.887 32.3672 116.363 32.4922 115.91 32.7422C115.465 32.9922 115.09 33.3359 114.785 33.7734C114.488 34.2031 114.266 34.6992 114.117 35.2617C113.969 35.8164 113.895 36.4062 113.895 37.0312ZM128.344 30.8203V43.5H126.164V30.8203H128.344ZM126 27.457C126 27.1055 126.105 26.8086 126.316 26.5664C126.535 26.3242 126.855 26.2031 127.277 26.2031C127.691 26.2031 128.008 26.3242 128.227 26.5664C128.453 26.8086 128.566 27.1055 128.566 27.457C128.566 27.793 128.453 28.082 128.227 28.3242C128.008 28.5586 127.691 28.6758 127.277 28.6758C126.855 28.6758 126.535 28.5586 126.316 28.3242C126.105 28.082 126 27.793 126 27.457ZM139.816 41.0391V25.5H141.996V43.5H140.004L139.816 41.0391ZM131.285 37.3008V37.0547C131.285 36.0859 131.402 35.207 131.637 34.418C131.879 33.6211 132.219 32.9375 132.656 32.3672C133.102 31.7969 133.629 31.3594 134.238 31.0547C134.855 30.7422 135.543 30.5859 136.301 30.5859C137.098 30.5859 137.793 30.7266 138.387 31.0078C138.988 31.2812 139.496 31.6836 139.91 32.2148C140.332 32.7383 140.664 33.3711 140.906 34.1133C141.148 34.8555 141.316 35.6953 141.41 36.6328V37.7109C141.324 38.6406 141.156 39.4766 140.906 40.2188C140.664 40.9609 140.332 41.5938 139.91 42.1172C139.496 42.6406 138.988 43.043 138.387 43.3242C137.785 43.5977 137.082 43.7344 136.277 43.7344C135.535 43.7344 134.855 43.5742 134.238 43.2539C133.629 42.9336 133.102 42.4844 132.656 41.9062C132.219 41.3281 131.879 40.6484 131.637 39.8672C131.402 39.0781 131.285 38.2227 131.285 37.3008ZM133.465 37.0547V37.3008C133.465 37.9336 133.527 38.5273 133.652 39.082C133.785 39.6367 133.988 40.125 134.262 40.5469C134.535 40.9688 134.883 41.3008 135.305 41.543C135.727 41.7773 136.23 41.8945 136.816 41.8945C137.535 41.8945 138.125 41.7422 138.586 41.4375C139.055 41.1328 139.43 40.7305 139.711 40.2305C139.992 39.7305 140.211 39.1875 140.367 38.6016V35.7773C140.273 35.3477 140.137 34.9336 139.957 34.5352C139.785 34.1289 139.559 33.7695 139.277 33.457C139.004 33.1367 138.664 32.8828 138.258 32.6953C137.859 32.5078 137.387 32.4141 136.84 32.4141C136.246 32.4141 135.734 32.5391 135.305 32.7891C134.883 33.0312 134.535 33.3672 134.262 33.7969C133.988 34.2188 133.785 34.7109 133.652 35.2734C133.527 35.8281 133.465 36.4219 133.465 37.0547Z" fill="white"/>
</svg>
