<svg width="163" height="60" viewBox="0 0 163 60" fill="none" xmlns="http://www.w3.org/2000/svg">
<path d="M62.884 29.3924C62.8516 28.5043 63 27.6188 63.3204 26.7891C63.6408 25.9594 64.1266 25.2027 64.7485 24.5644C65.3704 23.9261 66.1156 23.4193 66.9394 23.0746C67.7633 22.7298 68.6487 22.5542 69.5425 22.5582C72.9103 22.5582 74.9036 24.523 75.505 26.8296L73.3915 27.5386C73.2055 26.6787 72.7139 25.9142 72.007 25.3854C71.3 24.8566 70.425 24.599 69.5425 24.6597C67.3602 24.6597 65.178 26.2401 65.178 29.4351C65.178 32.6301 67.3087 34.1507 69.5682 34.1507C70.4556 34.1763 71.326 33.9048 72.0396 33.3796C72.7532 32.8544 73.2686 32.1061 73.5032 31.2547L75.5565 31.9211C75.205 33.2209 74.4167 34.3619 73.3226 35.1545C72.2285 35.9471 70.8945 36.3435 69.5425 36.2778C68.6406 36.2946 67.745 36.126 66.9118 35.7824C66.0786 35.4388 65.3258 34.9278 64.7007 34.2813C64.0755 33.6348 63.5914 32.8668 63.2788 32.0255C62.9662 31.1842 62.8318 30.2878 62.884 29.3924Z" fill="white"/>
<path d="M79.6289 35.9617H77.4639V22.5239H79.6289V27.7948C79.9443 27.424 80.34 27.1292 80.7864 26.9324C81.2329 26.7356 81.7184 26.642 82.2064 26.6586C84.4488 26.6586 85.5313 28.2561 85.5313 30.2466V35.9617H83.4264V30.6139C83.4659 30.3538 83.4459 30.0881 83.3679 29.8367C83.2899 29.5853 83.156 29.3546 82.9761 29.1617C82.7961 28.9689 82.5748 28.8188 82.3285 28.7226C82.0822 28.6265 81.8173 28.5867 81.5534 28.6064C81.2916 28.6066 81.0327 28.6609 80.793 28.7658C80.5534 28.8708 80.3383 29.0241 80.1614 29.2161C79.9845 29.408 79.8497 29.6344 79.7654 29.881C79.6811 30.1275 79.6493 30.3887 79.6719 30.6481L79.6289 35.9617Z" fill="white"/>
<path d="M90.3684 30.7849L92.6967 30.4261C93.2208 30.3577 93.3668 30.0929 93.3668 29.7768C93.3668 29.0165 92.8513 28.4014 91.6485 28.4014C91.4166 28.3816 91.183 28.4089 90.962 28.4815C90.7409 28.5542 90.537 28.6707 90.3627 28.8241C90.1883 28.9775 90.0472 29.1645 89.9477 29.3738C89.8483 29.5831 89.7926 29.8103 89.7842 30.0416L87.8081 29.5974C87.9713 28.0341 89.3975 26.6416 91.6313 26.6416C94.4322 26.6416 95.4975 28.222 95.4975 30.0587V34.5437C95.4926 35.0301 95.5299 35.516 95.6092 35.9959H93.5902C93.5209 35.6156 93.4921 35.229 93.5043 34.8427C93.2027 35.3023 92.7857 35.6757 92.2945 35.9259C91.8032 36.1761 91.2548 36.2945 90.7034 36.2693C90.3191 36.3007 89.9322 36.2543 89.5664 36.1329C89.2006 36.0115 88.8633 35.8175 88.575 35.5628C88.2867 35.308 88.0533 34.9978 87.889 34.6509C87.7247 34.3039 87.6329 33.9274 87.6191 33.5442C87.6191 31.8954 88.8133 31.007 90.3684 30.7849ZM93.3668 32.2371V31.8271L90.9956 32.1773C90.6733 32.1883 90.3677 32.3222 90.1422 32.5512C89.9166 32.7803 89.7884 33.0869 89.7842 33.4075C89.7869 33.573 89.8241 33.7361 89.8935 33.8865C89.9629 34.037 90.063 34.1714 90.1873 34.2814C90.3117 34.3914 90.4577 34.4746 90.616 34.5256C90.7744 34.5766 90.9416 34.5944 91.1073 34.5778C91.4201 34.6096 91.7362 34.57 92.0314 34.4621C92.3266 34.3543 92.5933 34.1809 92.8111 33.9553C93.0289 33.7297 93.1921 33.4577 93.2884 33.16C93.3847 32.8623 93.4115 32.5467 93.3668 32.2371Z" fill="white"/>
<path d="M99.1747 22.336C99.3623 22.3337 99.5485 22.3685 99.7225 22.4384C99.8965 22.5082 100.055 22.6116 100.188 22.7428C100.322 22.8739 100.428 23.03 100.5 23.2022C100.572 23.3743 100.61 23.559 100.61 23.7456C100.61 24.1171 100.461 24.4735 100.197 24.7362C99.9326 24.999 99.5742 25.1466 99.2005 25.1466C98.8268 25.1466 98.4684 24.999 98.2042 24.7362C97.9399 24.4735 97.7915 24.1171 97.7915 23.7456C97.7914 23.3776 97.936 23.0241 98.1945 22.7607C98.4529 22.4974 98.8047 22.3449 99.1747 22.336ZM98.118 36.0044V26.9235H100.257V35.9617L98.118 36.0044Z" fill="white"/>
<path d="M105.223 35.962H103.058V26.9238H105.172V28.1283C105.446 27.6659 105.84 27.2854 106.314 27.0269C106.787 26.7683 107.321 26.6412 107.861 26.6589C110.077 26.6589 111.143 28.2564 111.143 30.2469V35.962H108.978V30.6142C108.978 29.5037 108.471 28.6067 107.113 28.6067C106.843 28.6083 106.576 28.6668 106.33 28.7782C106.085 28.8896 105.865 29.0515 105.687 29.2531C105.508 29.4548 105.375 29.6918 105.295 29.9485C105.215 30.2051 105.191 30.4757 105.223 30.7424V35.962Z" fill="white"/>
<path d="M113.78 35.9617V22.5239H115.945V35.9617H113.78Z" fill="white"/>
<path d="M119.811 22.3364C120.187 22.3364 120.548 22.4849 120.814 22.7493C121.08 23.0136 121.229 23.3721 121.229 23.746C121.227 24.0223 121.143 24.292 120.988 24.5211C120.833 24.7502 120.612 24.9284 120.355 25.0334C120.098 25.1384 119.816 25.1654 119.543 25.1111C119.271 25.0567 119.02 24.9235 118.824 24.728C118.627 24.5326 118.493 24.2838 118.439 24.0128C118.384 23.7418 118.411 23.4609 118.517 23.2052C118.622 22.9496 118.802 22.7307 119.032 22.5761C119.262 22.4215 119.534 22.3381 119.811 22.3364ZM118.746 36.0048V26.9239H120.894V35.9621L118.746 36.0048Z" fill="white"/>
<path d="M125.86 35.9621H123.695V26.9239H125.8V28.1284C126.075 27.6672 126.47 27.2878 126.943 27.0294C127.416 26.771 127.95 26.6432 128.489 26.659C130.714 26.659 131.779 28.2565 131.779 30.247V35.9621H129.614V30.6143C129.654 30.3542 129.634 30.0885 129.556 29.8371C129.478 29.5857 129.344 29.355 129.164 29.1621C128.984 28.9693 128.763 28.8192 128.516 28.723C128.27 28.6269 128.005 28.5871 127.741 28.6068C127.472 28.6083 127.205 28.6667 126.96 28.7782C126.714 28.8897 126.495 29.0517 126.317 29.2536C126.139 29.4554 126.007 29.6925 125.928 29.9492C125.849 30.2059 125.826 30.4762 125.86 30.7425V35.9621Z" fill="white"/>
<path d="M139.185 30.7421L143 35.9617H140.345L137.673 32.237L136.556 33.4074V35.9702H134.408V22.5239H136.556V30.5797L140.045 26.9235H142.923L139.185 30.7421Z" fill="white"/>
<path d="M37.2294 18.8935L46.5942 24.2412V34.9794L37.2552 40.3614L27.8904 35.0222V24.2839L37.2294 18.8935ZM37.2294 11L33.7928 12.9819L24.4366 18.3724L21 20.3543V24.301V35.0307V38.9774L24.4366 40.9423L33.8014 46.29L37.238 48.2548L40.6747 46.2729L50.0137 40.8825L53.4503 38.9091V34.9624V24.2241V20.2774L50.0137 18.3126L40.6489 12.9648L37.2123 11H37.2294Z" fill="white"/>
</svg>
