<?xml version="1.0" encoding="utf-8"?>
<!-- Generator: Adobe Illustrator 26.3.1, SVG Export Plug-In . SVG Version: 6.00 Build 0)  -->
<svg version="1.1" id="Layer_1" xmlns="http://www.w3.org/2000/svg" xmlns:xlink="http://www.w3.org/1999/xlink" x="0px" y="0px"
	 viewBox="0 0 15 44" style="enable-background:new 0 0 15 44;" xml:space="preserve">
<style type="text/css">
	.st0{fill:none;}
	.st1{fill:#86868B;}
</style>
<rect class="st0" width="15" height="44"/>
<path class="st1" d="M14,27.7l-3.5-3.5c1.9-2.3,1.6-5.7-0.8-7.6S4,15,2.1,17.3S0.5,23.1,2.8,25c2,1.6,4.9,1.6,6.9,0l3.5,3.5
	c0.2,0.2,0.6,0.2,0.8,0S14.2,27.9,14,27.7L14,27.7z M2,20.8c0-2.4,1.9-4.3,4.3-4.3c2.4,0,4.3,1.9,4.3,4.3c0,2.4-1.9,4.3-4.3,4.3
	C3.9,25.1,2,23.2,2,20.8z"/>
</svg>
